<svg xmlns="http://www.w3.org/2000/svg" xmlns:xlink="http://www.w3.org/1999/xlink" version="1.1" x="0px" y="0px" viewBox="0 0 60 75" enable-background="new 0 0 60 60" xml:space="preserve"><path d="M41.88,15.85c-1.44,0-2.84,0.25-4.19,0.75c-2.12-2.97-5.48-4.72-9.13-4.72c-4.77,0-8.93,2.96-10.55,7.43  c-6.89,0.95-12,6.76-12,13.79c0,5.73,3.43,10.79,8.75,12.92c0.06,0.03,0.12,0.06,0.18,0.08l0.13,0.04c0.43,0.16,0.87,0.3,1.32,0.42  c3.24,1.03,6.6,1.55,9.99,1.55h9.39C45.82,48.11,54,39.93,54,29.87v-1.89C54,21.29,48.56,15.85,41.88,15.85z M52,29.87  c0,8.96-7.29,16.24-16.24,16.24h-9.39c-3.19,0-6.35-0.49-9.39-1.45c-0.02-0.01-0.08-0.02-0.1-0.03c-0.38-0.1-0.76-0.22-1.17-0.37  l-0.05-0.02c-0.02-0.01-0.04-0.02-0.06-0.02C10.99,42.42,8,38.06,8,33.11c0-6.21,4.66-11.31,10.84-11.87  c0.41-0.04,0.75-0.32,0.87-0.71c1.19-3.97,4.74-6.64,8.85-6.64c3.24,0,6.19,1.67,7.9,4.48c0.26,0.43,0.8,0.6,1.27,0.39  c1.32-0.6,2.72-0.9,4.16-0.9C47.46,17.85,52,22.4,52,27.98V29.87z"/></svg>